<?xml version="1.0" encoding="utf-8"?>
<!-- Generator: Adobe Illustrator 25.2.0, SVG Export Plug-In . SVG Version: 6.00 Build 0)  -->
<svg version="1.1" id="Layer_1" xmlns="http://www.w3.org/2000/svg" xmlns:xlink="http://www.w3.org/1999/xlink" x="0px" y="0px"
	 viewBox="0 0 258.7 228" style="enable-background:new 0 0 258.7 228;" xml:space="preserve">
<style type="text/css">
	.st0{opacity:0;fill:#B0B0B0;}
	.st1{opacity:2.439024e-02;fill:#B0B0B0;}
	.st2{opacity:4.878049e-02;fill:#B0B0B0;}
	.st3{opacity:7.317073e-02;fill:#B0B0B0;}
	.st4{opacity:9.756097e-02;fill:#B0B0B0;}
	.st5{opacity:0.122;fill:#B0B0B0;}
	.st6{opacity:0.1463;fill:#B0B0B0;}
	.st7{opacity:0.1707;fill:#B0B0B0;}
	.st8{opacity:0.1951;fill:#B0B0B0;}
	.st9{opacity:0.2195;fill:#B0B0B0;}
	.st10{opacity:0.2439;fill:#B0B0B0;}
	.st11{opacity:0.2683;fill:#B0B0B0;}
	.st12{opacity:0.2927;fill:#B0B0B0;}
	.st13{opacity:0.3171;fill:#B0B0B0;}
	.st14{opacity:0.3415;fill:#B0B0B0;}
	.st15{opacity:0.3659;fill:#B0B0B0;}
	.st16{opacity:0.3902;fill:#B0B0B0;}
	.st17{opacity:0.4146;fill:#B0B0B0;}
	.st18{opacity:0.439;fill:#B0B0B0;}
	.st19{opacity:0.4634;fill:#B0B0B0;}
	.st20{opacity:0.4878;fill:#B0B0B0;}
	.st21{opacity:0.5122;fill:#B0B0B0;}
	.st22{opacity:0.5366;fill:#B0B0B0;}
	.st23{opacity:0.561;fill:#B0B0B0;}
	.st24{opacity:0.5854;fill:#B0B0B0;}
	.st25{opacity:0.6098;fill:#B0B0B0;}
	.st26{opacity:0.6341;fill:#B0B0B0;}
	.st27{opacity:0.6585;fill:#B0B0B0;}
	.st28{opacity:0.6829;fill:#B0B0B0;}
	.st29{opacity:0.7073;fill:#B0B0B0;}
	.st30{opacity:0.7317;fill:#B0B0B0;}
	.st31{opacity:0.7561;fill:#B0B0B0;}
	.st32{opacity:0.7805;fill:#B0B0B0;}
	.st33{opacity:0.8049;fill:#B0B0B0;}
	.st34{opacity:0.8293;fill:#B0B0B0;}
	.st35{opacity:0.8537;fill:#B0B0B0;}
	.st36{opacity:0.878;fill:#B0B0B0;}
	.st37{opacity:0.9024;fill:#B0B0B0;}
	.st38{opacity:0.9268;fill:#B0B0B0;}
	.st39{opacity:0.9512;fill:#B0B0B0;}
	.st40{opacity:0.9756;fill:#B0B0B0;}
	.st41{fill:#B0B0B0;}
	.st42{fill:#395297;}
	.st43{fill:#FFFFFF;}
</style>
<g>
	<g>
		<path id="XMLID_3_" class="st0" d="M212.8,128.2c0-39.7-32.1-71.8-71.8-71.8c-39.7,0-71.8,32.1-71.8,71.8
			c0,39.7,32.1,71.8,71.8,71.8C180.6,200,212.8,167.8,212.8,128.2z"/>
		<path class="st1" d="M212.2,127.5c0-39.7-32.1-71.8-71.8-71.8c-39.7,0-71.8,32.1-71.8,71.8c0,39.7,32.1,71.8,71.8,71.8
			C180,199.3,212.2,167.1,212.2,127.5z"/>
		<path class="st2" d="M211.6,126.8c0-39.7-32.1-71.8-71.8-71.8C100.2,55,68,87.1,68,126.8c0,39.7,32.1,71.8,71.8,71.8
			C179.5,198.6,211.6,166.5,211.6,126.8z"/>
		<path class="st3" d="M211.1,126.1c0-39.7-32.1-71.8-71.8-71.8c-39.7,0-71.8,32.1-71.8,71.8c0,39.7,32.1,71.8,71.8,71.8
			C178.9,197.9,211.1,165.8,211.1,126.1z"/>
		<path class="st4" d="M210.5,125.4c0-39.7-32.1-71.8-71.8-71.8c-39.7,0-71.8,32.1-71.8,71.8c0,39.7,32.1,71.8,71.8,71.8
			C178.3,197.2,210.5,165.1,210.5,125.4z"/>
		<path class="st5" d="M209.9,124.7c0-39.7-32.1-71.8-71.8-71.8c-39.7,0-71.8,32.1-71.8,71.8c0,39.7,32.1,71.8,71.8,71.8
			C177.8,196.5,209.9,164.4,209.9,124.7z"/>
		<path class="st6" d="M209.4,124c0-39.7-32.1-71.8-71.8-71.8c-39.7,0-71.8,32.1-71.8,71.8c0,39.7,32.1,71.8,71.8,71.8
			C177.2,195.8,209.4,163.7,209.4,124z"/>
		<path class="st7" d="M208.8,123.3c0-39.7-32.1-71.8-71.8-71.8c-39.7,0-71.8,32.1-71.8,71.8c0,39.7,32.1,71.8,71.8,71.8
			C176.6,195.1,208.8,163,208.8,123.3z"/>
		<path class="st8" d="M208.2,122.6c0-39.7-32.1-71.8-71.8-71.8c-39.7,0-71.8,32.1-71.8,71.8c0,39.7,32.1,71.8,71.8,71.8
			C176.1,194.5,208.2,162.3,208.2,122.6z"/>
		<path class="st9" d="M207.7,121.9c0-39.7-32.1-71.8-71.8-71.8C96.2,50.1,64,82.3,64,121.9c0,39.7,32.1,71.8,71.8,71.8
			C175.5,193.8,207.7,161.6,207.7,121.9z"/>
		<path class="st10" d="M207.1,121.3c0-39.7-32.1-71.8-71.8-71.8c-39.7,0-71.8,32.1-71.8,71.8c0,39.7,32.1,71.8,71.8,71.8
			C174.9,193.1,207.1,160.9,207.1,121.3z"/>
		<path class="st11" d="M206.5,120.6c0-39.7-32.1-71.8-71.8-71.8c-39.7,0-71.8,32.1-71.8,71.8c0,39.7,32.1,71.8,71.8,71.8
			C174.4,192.4,206.5,160.2,206.5,120.6z"/>
		<path class="st12" d="M206,119.9c0-39.7-32.1-71.8-71.8-71.8c-39.7,0-71.8,32.1-71.8,71.8c0,39.7,32.1,71.8,71.8,71.8
			C173.8,191.7,206,159.5,206,119.9z"/>
		<path class="st13" d="M205.4,119.2c0-39.7-32.1-71.8-71.8-71.8c-39.7,0-71.8,32.1-71.8,71.8c0,39.7,32.1,71.8,71.8,71.8
			C173.2,191,205.4,158.8,205.4,119.2z"/>
		<path class="st14" d="M204.8,118.5c0-39.7-32.1-71.8-71.8-71.8c-39.7,0-71.8,32.1-71.8,71.8c0,39.7,32.1,71.8,71.8,71.8
			C172.7,190.3,204.8,158.1,204.8,118.5z"/>
		<path class="st15" d="M204.3,117.8c0-39.7-32.1-71.8-71.8-71.8c-39.7,0-71.8,32.1-71.8,71.8c0,39.7,32.1,71.8,71.8,71.8
			C172.1,189.6,204.3,157.4,204.3,117.8z"/>
		<path class="st16" d="M203.7,117.1c0-39.7-32.1-71.8-71.8-71.8c-39.7,0-71.8,32.1-71.8,71.8c0,39.7,32.1,71.8,71.8,71.8
			C171.6,188.9,203.7,156.8,203.7,117.1z"/>
		<path class="st17" d="M203.1,116.4c0-39.7-32.1-71.8-71.8-71.8c-39.7,0-71.8,32.1-71.8,71.8c0,39.7,32.1,71.8,71.8,71.8
			C171,188.2,203.1,156.1,203.1,116.4z"/>
		<path class="st18" d="M202.6,115.7c0-39.7-32.1-71.8-71.8-71.8c-39.7,0-71.8,32.1-71.8,71.8c0,39.7,32.1,71.8,71.8,71.8
			C170.4,187.5,202.6,155.4,202.6,115.7z"/>
		<path class="st19" d="M202,115c0-39.7-32.1-71.8-71.8-71.8c-39.7,0-71.8,32.1-71.8,71.8c0,39.7,32.1,71.8,71.8,71.8
			C169.9,186.8,202,154.7,202,115z"/>
		<path class="st20" d="M201.4,114.3c0-39.7-32.1-71.8-71.8-71.8c-39.7,0-71.8,32.1-71.8,71.8c0,39.7,32.1,71.8,71.8,71.8
			C169.3,186.1,201.4,154,201.4,114.3z"/>
		<path class="st21" d="M200.9,113.6c0-39.7-32.1-71.8-71.8-71.8c-39.7,0-71.8,32.1-71.8,71.8c0,39.7,32.1,71.8,71.8,71.8
			C168.7,185.4,200.9,153.3,200.9,113.6z"/>
		<path class="st22" d="M200.3,112.9c0-39.7-32.1-71.8-71.8-71.8c-39.7,0-71.8,32.1-71.8,71.8c0,39.7,32.1,71.8,71.8,71.8
			C168.2,184.8,200.3,152.6,200.3,112.9z"/>
		<path class="st23" d="M199.7,112.2c0-39.7-32.1-71.8-71.8-71.8c-39.7,0-71.8,32.1-71.8,71.8c0,39.7,32.1,71.8,71.8,71.8
			C167.6,184.1,199.7,151.9,199.7,112.2z"/>
		<path class="st24" d="M199.2,111.6c0-39.7-32.1-71.8-71.8-71.8c-39.7,0-71.8,32.1-71.8,71.8c0,39.7,32.1,71.8,71.8,71.8
			C167,183.4,199.2,151.2,199.2,111.6z"/>
		<path class="st25" d="M198.6,110.9c0-39.7-32.1-71.8-71.8-71.8C87.1,39.1,55,71.2,55,110.9c0,39.7,32.1,71.8,71.8,71.8
			C166.5,182.7,198.6,150.5,198.6,110.9z"/>
		<path class="st26" d="M198,110.2c0-39.7-32.1-71.8-71.8-71.8c-39.7,0-71.8,32.1-71.8,71.8c0,39.7,32.1,71.8,71.8,71.8
			C165.9,182,198,149.8,198,110.2z"/>
		<path class="st27" d="M197.5,109.5c0-39.7-32.1-71.8-71.8-71.8c-39.7,0-71.8,32.1-71.8,71.8c0,39.7,32.1,71.8,71.8,71.8
			C165.3,181.3,197.5,149.1,197.5,109.5z"/>
		<path class="st28" d="M196.9,108.8c0-39.7-32.1-71.8-71.8-71.8c-39.7,0-71.8,32.1-71.8,71.8c0,39.7,32.1,71.8,71.8,71.8
			C164.8,180.6,196.9,148.4,196.9,108.8z"/>
		<path class="st29" d="M196.3,108.1c0-39.7-32.1-71.8-71.8-71.8c-39.7,0-71.8,32.1-71.8,71.8c0,39.7,32.1,71.8,71.8,71.8
			C164.2,179.9,196.3,147.7,196.3,108.1z"/>
		<path class="st30" d="M195.8,107.4c0-39.7-32.1-71.8-71.8-71.8c-39.7,0-71.8,32.1-71.8,71.8c0,39.7,32.1,71.8,71.8,71.8
			C163.6,179.2,195.8,147.1,195.8,107.4z"/>
		<path class="st31" d="M195.2,106.7c0-39.7-32.1-71.8-71.8-71.8c-39.7,0-71.8,32.1-71.8,71.8c0,39.7,32.1,71.8,71.8,71.8
			C163.1,178.5,195.2,146.4,195.2,106.7z"/>
		<path class="st32" d="M194.6,106c0-39.7-32.1-71.8-71.8-71.8C83.2,34.2,51,66.4,51,106c0,39.7,32.1,71.8,71.8,71.8
			C162.5,177.8,194.6,145.7,194.6,106z"/>
		<path class="st33" d="M194.1,105.3c0-39.7-32.1-71.8-71.8-71.8c-39.7,0-71.8,32.1-71.8,71.8c0,39.7,32.1,71.8,71.8,71.8
			C161.9,177.1,194.1,145,194.1,105.3z"/>
		<path class="st34" d="M193.5,104.6c0-39.7-32.1-71.8-71.8-71.8C82,32.8,49.9,65,49.9,104.6c0,39.7,32.1,71.8,71.8,71.8
			C161.4,176.4,193.5,144.3,193.5,104.6z"/>
		<path class="st35" d="M192.9,103.9c0-39.7-32.1-71.8-71.8-71.8c-39.7,0-71.8,32.1-71.8,71.8c0,39.7,32.1,71.8,71.8,71.8
			C160.8,175.8,192.9,143.6,192.9,103.9z"/>
		<path class="st36" d="M192.4,103.2c0-39.7-32.1-71.8-71.8-71.8c-39.7,0-71.8,32.1-71.8,71.8c0,39.7,32.1,71.8,71.8,71.8
			C160.2,175.1,192.4,142.9,192.4,103.2z"/>
		<path class="st37" d="M191.8,102.6c0-39.7-32.1-71.8-71.8-71.8c-39.7,0-71.8,32.1-71.8,71.8c0,39.7,32.1,71.8,71.8,71.8
			C159.7,174.4,191.8,142.2,191.8,102.6z"/>
		<path class="st38" d="M191.2,101.9c0-39.7-32.1-71.8-71.8-71.8c-39.7,0-71.8,32.1-71.8,71.8c0,39.7,32.1,71.8,71.8,71.8
			C159.1,173.7,191.2,141.5,191.2,101.9z"/>
		<path class="st39" d="M190.7,101.2c0-39.7-32.1-71.8-71.8-71.8c-39.7,0-71.8,32.1-71.8,71.8c0,39.7,32.1,71.8,71.8,71.8
			C158.5,173,190.7,140.8,190.7,101.2z"/>
		<path class="st40" d="M190.1,100.5c0-39.7-32.1-71.8-71.8-71.8c-39.7,0-71.8,32.1-71.8,71.8c0,39.7,32.1,71.8,71.8,71.8
			C158,172.3,190.1,140.1,190.1,100.5z"/>
		<path id="XMLID_2_" class="st41" d="M189.6,99.8c0-39.7-32.1-71.8-71.8-71.8c-39.7,0-71.8,32.1-71.8,71.8
			c0,39.7,32.1,71.8,71.8,71.8C157.4,171.6,189.6,139.4,189.6,99.8z"/>
	</g>
	<g>
		<path id="XMLID_21_" class="st42" d="M189.6,99.8c0-39.7-32.1-71.8-71.8-71.8c-39.7,0-71.8,32.1-71.8,71.8
			c0,39.7,32.1,71.8,71.8,71.8C157.4,171.6,189.6,139.4,189.6,99.8z"/>
		<path id="XMLID_19_" class="st43" d="M124.1,82.8V76c0-3.3,2.2-4.1,3.8-4.1c1.6,0,9.5,0,9.5,0V57.3l-13.1-0.1
			c-14.6,0-17.9,10.9-17.9,17.8v7.7h-8.4v17h8.5c0,19.3,0,42.5,0,42.5h17c0,0,0-23.5,0-42.5H136l1.6-17H124.1z"/>
	</g>
</g>
</svg>
