<?xml version="1.0" encoding="utf-8"?>
<!-- Generator: Adobe Illustrator 25.2.0, SVG Export Plug-In . SVG Version: 6.00 Build 0)  -->
<svg version="1.1" id="Layer_1" xmlns="http://www.w3.org/2000/svg" xmlns:xlink="http://www.w3.org/1999/xlink" x="0px" y="0px"
	 viewBox="0 0 258.7 228" style="enable-background:new 0 0 258.7 228;" xml:space="preserve">
<style type="text/css">
	.st0{opacity:0;fill:#B0B0B0;}
	.st1{opacity:2.439024e-02;fill:#B0B0B0;}
	.st2{opacity:4.878049e-02;fill:#B0B0B0;}
	.st3{opacity:7.317073e-02;fill:#B0B0B0;}
	.st4{opacity:9.756097e-02;fill:#B0B0B0;}
	.st5{opacity:0.122;fill:#B0B0B0;}
	.st6{opacity:0.1463;fill:#B0B0B0;}
	.st7{opacity:0.1707;fill:#B0B0B0;}
	.st8{opacity:0.1951;fill:#B0B0B0;}
	.st9{opacity:0.2195;fill:#B0B0B0;}
	.st10{opacity:0.2439;fill:#B0B0B0;}
	.st11{opacity:0.2683;fill:#B0B0B0;}
	.st12{opacity:0.2927;fill:#B0B0B0;}
	.st13{opacity:0.3171;fill:#B0B0B0;}
	.st14{opacity:0.3415;fill:#B0B0B0;}
	.st15{opacity:0.3659;fill:#B0B0B0;}
	.st16{opacity:0.3902;fill:#B0B0B0;}
	.st17{opacity:0.4146;fill:#B0B0B0;}
	.st18{opacity:0.439;fill:#B0B0B0;}
	.st19{opacity:0.4634;fill:#B0B0B0;}
	.st20{opacity:0.4878;fill:#B0B0B0;}
	.st21{opacity:0.5122;fill:#B0B0B0;}
	.st22{opacity:0.5366;fill:#B0B0B0;}
	.st23{opacity:0.561;fill:#B0B0B0;}
	.st24{opacity:0.5854;fill:#B0B0B0;}
	.st25{opacity:0.6098;fill:#B0B0B0;}
	.st26{opacity:0.6341;fill:#B0B0B0;}
	.st27{opacity:0.6585;fill:#B0B0B0;}
	.st28{opacity:0.6829;fill:#B0B0B0;}
	.st29{opacity:0.7073;fill:#B0B0B0;}
	.st30{opacity:0.7317;fill:#B0B0B0;}
	.st31{opacity:0.7561;fill:#B0B0B0;}
	.st32{opacity:0.7805;fill:#B0B0B0;}
	.st33{opacity:0.8049;fill:#B0B0B0;}
	.st34{opacity:0.8293;fill:#B0B0B0;}
	.st35{opacity:0.8537;fill:#B0B0B0;}
	.st36{opacity:0.878;fill:#B0B0B0;}
	.st37{opacity:0.9024;fill:#B0B0B0;}
	.st38{opacity:0.9268;fill:#B0B0B0;}
	.st39{opacity:0.9512;fill:#B0B0B0;}
	.st40{opacity:0.9756;fill:#B0B0B0;}
	.st41{fill:#B0B0B0;}
	.st42{fill:url(#SVGID_1_);}
	.st43{fill:none;stroke:#FFFFFF;stroke-miterlimit:10;}
	.st44{fill:#FFFFFF;}
</style>
<g>
	<g>
		<path class="st0" d="M140.8,55.9c-39.7,0-71.9,32.2-71.9,71.9c0,39.7,32.2,71.9,71.9,71.9c39.7,0,71.9-32.2,71.9-71.9
			C212.7,88.1,180.5,55.9,140.8,55.9z"/>
		<path class="st1" d="M140.3,55.2c-39.7,0-71.9,32.2-71.9,71.9c0,39.7,32.2,71.9,71.9,71.9c39.7,0,71.9-32.2,71.9-71.9
			C212.2,87.4,180,55.2,140.3,55.2z"/>
		<path class="st2" d="M139.7,54.5c-39.7,0-71.9,32.2-71.9,71.9c0,39.7,32.2,71.9,71.9,71.9c39.7,0,71.9-32.2,71.9-71.9
			C211.6,86.7,179.4,54.5,139.7,54.5z"/>
		<path class="st3" d="M139.1,53.8c-39.7,0-71.9,32.2-71.9,71.9c0,39.7,32.2,71.9,71.9,71.9c39.7,0,71.9-32.2,71.9-71.9
			C211,86,178.8,53.8,139.1,53.8z"/>
		<path class="st4" d="M138.6,53.1c-39.7,0-71.9,32.2-71.9,71.9c0,39.7,32.2,71.9,71.9,71.9c39.7,0,71.9-32.2,71.9-71.9
			C210.5,85.3,178.3,53.1,138.6,53.1z"/>
		<path class="st5" d="M138,52.4c-39.7,0-71.9,32.2-71.9,71.9c0,39.7,32.2,71.9,71.9,71.9c39.7,0,71.9-32.2,71.9-71.9
			C209.9,84.6,177.7,52.4,138,52.4z"/>
		<path class="st6" d="M137.4,51.7c-39.7,0-71.9,32.2-71.9,71.9c0,39.7,32.2,71.9,71.9,71.9c39.7,0,71.9-32.2,71.9-71.9
			C209.3,83.9,177.1,51.7,137.4,51.7z"/>
		<path class="st7" d="M136.9,51C97.2,51,65,83.2,65,122.9c0,39.7,32.2,71.9,71.9,71.9c39.7,0,71.9-32.2,71.9-71.9
			C208.8,83.2,176.6,51,136.9,51z"/>
		<path class="st8" d="M136.3,50.3c-39.7,0-71.9,32.2-71.9,71.9c0,39.7,32.2,71.9,71.9,71.9c39.7,0,71.9-32.2,71.9-71.9
			C208.2,82.5,176,50.3,136.3,50.3z"/>
		<path class="st9" d="M135.7,49.7c-39.7,0-71.9,32.2-71.9,71.9c0,39.7,32.2,71.9,71.9,71.9c39.7,0,71.9-32.2,71.9-71.9
			C207.6,81.8,175.4,49.7,135.7,49.7z"/>
		<path class="st10" d="M135.2,49c-39.7,0-71.9,32.2-71.9,71.9c0,39.7,32.2,71.9,71.9,71.9c39.7,0,71.9-32.2,71.9-71.9
			C207.1,81.2,174.9,49,135.2,49z"/>
		<path class="st11" d="M134.6,48.3c-39.7,0-71.9,32.2-71.9,71.9c0,39.7,32.2,71.9,71.9,71.9c39.7,0,71.9-32.2,71.9-71.9
			C206.5,80.5,174.3,48.3,134.6,48.3z"/>
		<path class="st12" d="M134,47.6c-39.7,0-71.9,32.2-71.9,71.9c0,39.7,32.2,71.9,71.9,71.9c39.7,0,71.9-32.2,71.9-71.9
			C205.9,79.8,173.7,47.6,134,47.6z"/>
		<path class="st13" d="M133.5,46.9c-39.7,0-71.9,32.2-71.9,71.9c0,39.7,32.2,71.9,71.9,71.9c39.7,0,71.9-32.2,71.9-71.9
			C205.4,79.1,173.2,46.9,133.5,46.9z"/>
		<path class="st14" d="M132.9,46.2C93.2,46.2,61,78.4,61,118.1c0,39.7,32.2,71.9,71.9,71.9c39.7,0,71.9-32.2,71.9-71.9
			C204.8,78.4,172.6,46.2,132.9,46.2z"/>
		<path class="st15" d="M132.3,45.5c-39.7,0-71.9,32.2-71.9,71.9c0,39.7,32.2,71.9,71.9,71.9c39.7,0,71.9-32.2,71.9-71.9
			C204.2,77.7,172.1,45.5,132.3,45.5z"/>
		<path class="st16" d="M131.8,44.8c-39.7,0-71.9,32.2-71.9,71.9c0,39.7,32.2,71.9,71.9,71.9c39.7,0,71.9-32.2,71.9-71.9
			C203.7,77,171.5,44.8,131.8,44.8z"/>
		<path class="st17" d="M131.2,44.1c-39.7,0-71.9,32.2-71.9,71.9c0,39.7,32.2,71.9,71.9,71.9c39.7,0,71.9-32.2,71.9-71.9
			C203.1,76.3,170.9,44.1,131.2,44.1z"/>
		<path class="st18" d="M130.6,43.4c-39.7,0-71.9,32.2-71.9,71.9c0,39.7,32.2,71.9,71.9,71.9c39.7,0,71.9-32.2,71.9-71.9
			C202.5,75.6,170.4,43.4,130.6,43.4z"/>
		<path class="st19" d="M130.1,42.7c-39.7,0-71.9,32.2-71.9,71.9c0,39.7,32.2,71.9,71.9,71.9c39.7,0,71.9-32.2,71.9-71.9
			C202,74.9,169.8,42.7,130.1,42.7z"/>
		<path class="st20" d="M129.5,42c-39.7,0-71.9,32.2-71.9,71.9c0,39.7,32.2,71.9,71.9,71.9c39.7,0,71.9-32.2,71.9-71.9
			C201.4,74.2,169.2,42,129.5,42z"/>
		<path class="st21" d="M128.9,41.3c-39.7,0-71.9,32.2-71.9,71.9c0,39.7,32.2,71.9,71.9,71.9c39.7,0,71.9-32.2,71.9-71.9
			C200.8,73.5,168.7,41.3,128.9,41.3z"/>
		<path class="st22" d="M128.4,40.6c-39.7,0-71.9,32.2-71.9,71.9c0,39.7,32.2,71.9,71.9,71.9c39.7,0,71.9-32.2,71.9-71.9
			C200.3,72.8,168.1,40.6,128.4,40.6z"/>
		<path class="st23" d="M127.8,40c-39.7,0-71.9,32.2-71.9,71.9c0,39.7,32.2,71.9,71.9,71.9c39.7,0,71.9-32.2,71.9-71.9
			C199.7,72.1,167.5,40,127.8,40z"/>
		<path class="st24" d="M127.3,39.3c-39.7,0-71.9,32.2-71.9,71.9c0,39.7,32.2,71.9,71.9,71.9c39.7,0,71.9-32.2,71.9-71.9
			C199.2,71.5,167,39.3,127.3,39.3z"/>
		<path class="st25" d="M126.7,38.6c-39.7,0-71.9,32.2-71.9,71.9c0,39.7,32.2,71.9,71.9,71.9c39.7,0,71.9-32.2,71.9-71.9
			C198.6,70.8,166.4,38.6,126.7,38.6z"/>
		<path class="st26" d="M126.1,37.9c-39.7,0-71.9,32.2-71.9,71.9c0,39.7,32.2,71.9,71.9,71.9c39.7,0,71.9-32.2,71.9-71.9
			C198,70.1,165.8,37.9,126.1,37.9z"/>
		<path class="st27" d="M125.6,37.2c-39.7,0-71.9,32.2-71.9,71.9c0,39.7,32.2,71.9,71.9,71.9c39.7,0,71.9-32.2,71.9-71.9
			C197.5,69.4,165.3,37.2,125.6,37.2z"/>
		<path class="st28" d="M125,36.5c-39.7,0-71.9,32.2-71.9,71.9c0,39.7,32.2,71.9,71.9,71.9c39.7,0,71.9-32.2,71.9-71.9
			C196.9,68.7,164.7,36.5,125,36.5z"/>
		<path class="st29" d="M124.4,35.8c-39.7,0-71.9,32.2-71.9,71.9c0,39.7,32.2,71.9,71.9,71.9c39.7,0,71.9-32.2,71.9-71.9
			C196.3,68,164.1,35.8,124.4,35.8z"/>
		<path class="st30" d="M123.9,35.1C84.2,35.1,52,67.3,52,107c0,39.7,32.2,71.9,71.9,71.9c39.7,0,71.9-32.2,71.9-71.9
			C195.8,67.3,163.6,35.1,123.9,35.1z"/>
		<path class="st31" d="M123.3,34.4c-39.7,0-71.9,32.2-71.9,71.9c0,39.7,32.2,71.9,71.9,71.9c39.7,0,71.9-32.2,71.9-71.9
			C195.2,66.6,163,34.4,123.3,34.4z"/>
		<path class="st32" d="M122.7,33.7c-39.7,0-71.9,32.2-71.9,71.9c0,39.7,32.2,71.9,71.9,71.9c39.7,0,71.9-32.2,71.9-71.9
			C194.6,65.9,162.4,33.7,122.7,33.7z"/>
		<path class="st33" d="M122.2,33c-39.7,0-71.9,32.2-71.9,71.9c0,39.7,32.2,71.9,71.9,71.9c39.7,0,71.9-32.2,71.9-71.9
			C194.1,65.2,161.9,33,122.2,33z"/>
		<path class="st34" d="M121.6,32.3c-39.7,0-71.9,32.2-71.9,71.9c0,39.7,32.2,71.9,71.9,71.9c39.7,0,71.9-32.2,71.9-71.9
			C193.5,64.5,161.3,32.3,121.6,32.3z"/>
		<path class="st35" d="M121,31.6c-39.7,0-71.9,32.2-71.9,71.9c0,39.7,32.2,71.9,71.9,71.9c39.7,0,71.9-32.2,71.9-71.9
			C192.9,63.8,160.7,31.6,121,31.6z"/>
		<path class="st36" d="M120.5,30.9c-39.7,0-71.9,32.2-71.9,71.9c0,39.7,32.2,71.9,71.9,71.9c39.7,0,71.9-32.2,71.9-71.9
			C192.4,63.1,160.2,30.9,120.5,30.9z"/>
		<path class="st37" d="M119.9,30.3C80.2,30.3,48,62.4,48,102.2c0,39.7,32.2,71.9,71.9,71.9c39.7,0,71.9-32.2,71.9-71.9
			C191.8,62.4,159.6,30.3,119.9,30.3z"/>
		<path class="st38" d="M119.3,29.6c-39.7,0-71.9,32.2-71.9,71.9c0,39.7,32.2,71.9,71.9,71.9c39.7,0,71.9-32.2,71.9-71.9
			C191.2,61.8,159,29.6,119.3,29.6z"/>
		<path class="st39" d="M118.8,28.9c-39.7,0-71.9,32.2-71.9,71.9c0,39.7,32.2,71.9,71.9,71.9c39.7,0,71.9-32.2,71.9-71.9
			C190.7,61.1,158.5,28.9,118.8,28.9z"/>
		<path class="st40" d="M118.2,28.2c-39.7,0-71.9,32.2-71.9,71.9c0,39.7,32.2,71.9,71.9,71.9c39.7,0,71.9-32.2,71.9-71.9
			C190.1,60.4,157.9,28.2,118.2,28.2z"/>
		<path class="st41" d="M117.6,27.5c-39.7,0-71.9,32.2-71.9,71.9c0,39.7,32.2,71.9,71.9,71.9c39.7,0,71.9-32.2,71.9-71.9
			C189.5,59.7,157.3,27.5,117.6,27.5z"/>
	</g>
	<g>
		
			<linearGradient id="SVGID_1_" gradientUnits="userSpaceOnUse" x1="-517.0822" y1="-232.1137" x2="-422.7379" y2="-123.583" gradientTransform="matrix(-1 0 0 -1 -352.278 -78.459)">
			<stop  offset="0" style="stop-color:#5D53A3"/>
			<stop  offset="0.4244" style="stop-color:#AC3D96"/>
			<stop  offset="0.4746" style="stop-color:#B23B8F"/>
			<stop  offset="0.5648" style="stop-color:#BF3782"/>
			<stop  offset="0.6836" style="stop-color:#D32F6C"/>
			<stop  offset="0.7849" style="stop-color:#E52557"/>
			<stop  offset="0.8115" style="stop-color:#E73B58"/>
			<stop  offset="0.8625" style="stop-color:#EB615B"/>
			<stop  offset="0.9318" style="stop-color:#F2905B"/>
			<stop  offset="1" style="stop-color:#FEC154"/>
		</linearGradient>
		<path class="st42" d="M117.6,27.5c-39.7,0-71.9,32.2-71.9,71.9c0,39.7,32.2,71.9,71.9,71.9c39.7,0,71.9-32.2,71.9-71.9
			C189.5,59.7,157.3,27.5,117.6,27.5z"/>
		<g>
			<path class="st43" d="M97.1,134.3L97.1,134.3L97.1,134.3L97.1,134.3z M138.2,61.4L138.2,61.4L138.2,61.4L138.2,61.4z"/>
			<g>
				<path class="st44" d="M117.6,125.1c14.2,0,25.7-11.5,25.7-25.7c0-14.2-11.5-25.7-25.7-25.7C103.5,73.7,92,85.2,92,99.4
					C92,113.5,103.5,125.1,117.6,125.1z M98.2,99.4c0-10.7,8.7-19.5,19.4-19.5s19.4,8.7,19.4,19.5c0,10.7-8.7,19.4-19.4,19.4
					S98.2,110.1,98.2,99.4z"/>
			</g>
			<path class="st44" d="M143.2,142H92c-9.6,0-17.4-7.8-17.4-17.4V74.2c0-9.6,7.8-17.4,17.4-17.4h51.2c9.6,0,17.4,7.8,17.4,17.4
				v50.4C160.7,134.2,152.9,142,143.2,142z M92,63.1c-6.1,0-11.1,5-11.1,11.1v50.4c0,6.1,5,11.1,11.1,11.1h51.2
				c6.1,0,11.1-5,11.1-11.1V74.2c0-6.1-5-11.1-11.1-11.1H92z"/>
		</g>
		<path class="st44" d="M143.7,70.8c-2.2,0-4.1,1.8-4.1,4.1c0,2.2,1.8,4,4.1,4c2.2,0,4.1-1.8,4.1-4
			C147.7,72.6,145.9,70.8,143.7,70.8z"/>
	</g>
</g>
</svg>
