<?xml version="1.0" encoding="utf-8"?>
<!-- Generator: Adobe Illustrator 25.2.0, SVG Export Plug-In . SVG Version: 6.00 Build 0)  -->
<svg version="1.1" id="Layer_1" xmlns="http://www.w3.org/2000/svg" xmlns:xlink="http://www.w3.org/1999/xlink" x="0px" y="0px"
	 viewBox="0 0 258.7 228" style="enable-background:new 0 0 258.7 228;" xml:space="preserve">
<style type="text/css">
	.st0{opacity:0;fill:#B0B0B0;}
	.st1{opacity:2.439024e-02;fill:#B0B0B0;}
	.st2{opacity:4.878049e-02;fill:#B0B0B0;}
	.st3{opacity:7.317073e-02;fill:#B0B0B0;}
	.st4{opacity:9.756097e-02;fill:#B0B0B0;}
	.st5{opacity:0.122;fill:#B0B0B0;}
	.st6{opacity:0.1463;fill:#B0B0B0;}
	.st7{opacity:0.1707;fill:#B0B0B0;}
	.st8{opacity:0.1951;fill:#B0B0B0;}
	.st9{opacity:0.2195;fill:#B0B0B0;}
	.st10{opacity:0.2439;fill:#B0B0B0;}
	.st11{opacity:0.2683;fill:#B0B0B0;}
	.st12{opacity:0.2927;fill:#B0B0B0;}
	.st13{opacity:0.3171;fill:#B0B0B0;}
	.st14{opacity:0.3415;fill:#B0B0B0;}
	.st15{opacity:0.3659;fill:#B0B0B0;}
	.st16{opacity:0.3902;fill:#B0B0B0;}
	.st17{opacity:0.4146;fill:#B0B0B0;}
	.st18{opacity:0.439;fill:#B0B0B0;}
	.st19{opacity:0.4634;fill:#B0B0B0;}
	.st20{opacity:0.4878;fill:#B0B0B0;}
	.st21{opacity:0.5122;fill:#B0B0B0;}
	.st22{opacity:0.5366;fill:#B0B0B0;}
	.st23{opacity:0.561;fill:#B0B0B0;}
	.st24{opacity:0.5854;fill:#B0B0B0;}
	.st25{opacity:0.6098;fill:#B0B0B0;}
	.st26{opacity:0.6341;fill:#B0B0B0;}
	.st27{opacity:0.6585;fill:#B0B0B0;}
	.st28{opacity:0.6829;fill:#B0B0B0;}
	.st29{opacity:0.7073;fill:#B0B0B0;}
	.st30{opacity:0.7317;fill:#B0B0B0;}
	.st31{opacity:0.7561;fill:#B0B0B0;}
	.st32{opacity:0.7805;fill:#B0B0B0;}
	.st33{opacity:0.8049;fill:#B0B0B0;}
	.st34{opacity:0.8293;fill:#B0B0B0;}
	.st35{opacity:0.8537;fill:#B0B0B0;}
	.st36{opacity:0.878;fill:#B0B0B0;}
	.st37{opacity:0.9024;fill:#B0B0B0;}
	.st38{opacity:0.9268;fill:#B0B0B0;}
	.st39{opacity:0.9512;fill:#B0B0B0;}
	.st40{opacity:0.9756;fill:#B0B0B0;}
	.st41{fill:#B0B0B0;}
	.st42{fill:#49A1DA;}
	.st43{fill:#FFFFFF;}
</style>
<g>
	<g>
		<path id="XMLID_2_" class="st0" d="M212.6,127.8c0-39.7-32.1-71.8-71.8-71.8C101.2,56,69,88.1,69,127.8
			c0,39.7,32.1,71.8,71.8,71.8C180.5,199.6,212.6,167.4,212.6,127.8z"/>
		<path class="st1" d="M212.1,127.1c0-39.7-32.1-71.8-71.8-71.8c-39.7,0-71.8,32.2-71.8,71.8c0,39.7,32.1,71.8,71.8,71.8
			C179.9,198.9,212.1,166.8,212.1,127.1z"/>
		<path class="st2" d="M211.5,126.4c0-39.7-32.1-71.8-71.8-71.8c-39.7,0-71.8,32.2-71.8,71.8c0,39.7,32.1,71.8,71.8,71.8
			C179.4,198.2,211.5,166.1,211.5,126.4z"/>
		<path class="st3" d="M210.9,125.7c0-39.7-32.1-71.8-71.8-71.8c-39.7,0-71.8,32.2-71.8,71.8c0,39.7,32.1,71.8,71.8,71.8
			C178.8,197.5,210.9,165.4,210.9,125.7z"/>
		<path class="st4" d="M210.4,125c0-39.7-32.1-71.8-71.8-71.8c-39.7,0-71.8,32.2-71.8,71.8c0,39.7,32.1,71.8,71.8,71.8
			C178.2,196.8,210.4,164.7,210.4,125z"/>
		<path class="st5" d="M209.8,124.3c0-39.7-32.1-71.8-71.8-71.8c-39.7,0-71.8,32.2-71.8,71.8c0,39.7,32.1,71.8,71.8,71.8
			C177.7,196.1,209.8,164,209.8,124.3z"/>
		<path class="st6" d="M209.2,123.6c0-39.7-32.1-71.8-71.8-71.8c-39.7,0-71.8,32.2-71.8,71.8c0,39.7,32.1,71.8,71.8,71.8
			C177.1,195.4,209.2,163.3,209.2,123.6z"/>
		<path class="st7" d="M208.7,122.9c0-39.7-32.1-71.8-71.8-71.8c-39.7,0-71.8,32.2-71.8,71.8c0,39.7,32.1,71.8,71.8,71.8
			C176.5,194.8,208.7,162.6,208.7,122.9z"/>
		<path class="st8" d="M208.1,122.2c0-39.7-32.1-71.8-71.8-71.8c-39.7,0-71.8,32.2-71.8,71.8c0,39.7,32.1,71.8,71.8,71.8
			C176,194.1,208.1,161.9,208.1,122.2z"/>
		<path class="st9" d="M207.5,121.6c0-39.7-32.1-71.8-71.8-71.8c-39.7,0-71.8,32.2-71.8,71.8c0,39.7,32.1,71.8,71.8,71.8
			C175.4,193.4,207.5,161.2,207.5,121.6z"/>
		<path class="st10" d="M207,120.9c0-39.7-32.1-71.8-71.8-71.8c-39.7,0-71.8,32.2-71.8,71.8c0,39.7,32.1,71.8,71.8,71.8
			C174.8,192.7,207,160.5,207,120.9z"/>
		<path class="st11" d="M206.4,120.2c0-39.7-32.1-71.8-71.8-71.8c-39.7,0-71.8,32.2-71.8,71.8c0,39.7,32.1,71.8,71.8,71.8
			C174.3,192,206.4,159.8,206.4,120.2z"/>
		<path class="st12" d="M205.9,119.5c0-39.7-32.1-71.8-71.8-71.8c-39.7,0-71.8,32.2-71.8,71.8c0,39.7,32.1,71.8,71.8,71.8
			C173.7,191.3,205.9,159.1,205.9,119.5z"/>
		<path class="st13" d="M205.3,118.8c0-39.7-32.1-71.8-71.8-71.8c-39.7,0-71.8,32.2-71.8,71.8c0,39.7,32.1,71.8,71.8,71.8
			C173.1,190.6,205.3,158.4,205.3,118.8z"/>
		<path class="st14" d="M204.7,118.1c0-39.7-32.1-71.8-71.8-71.8c-39.7,0-71.8,32.2-71.8,71.8c0,39.7,32.1,71.8,71.8,71.8
			C172.6,189.9,204.7,157.7,204.7,118.1z"/>
		<path class="st15" d="M204.2,117.4c0-39.7-32.1-71.8-71.8-71.8c-39.7,0-71.8,32.2-71.8,71.8c0,39.7,32.1,71.8,71.8,71.8
			C172,189.2,204.2,157.1,204.2,117.4z"/>
		<path class="st16" d="M203.6,116.7c0-39.7-32.1-71.8-71.8-71.8C92.1,44.9,60,77.1,60,116.7c0,39.7,32.1,71.8,71.8,71.8
			C171.4,188.5,203.6,156.4,203.6,116.7z"/>
		<path class="st17" d="M203,116c0-39.7-32.1-71.8-71.8-71.8c-39.7,0-71.8,32.2-71.8,71.8c0,39.7,32.1,71.8,71.8,71.8
			C170.9,187.8,203,155.7,203,116z"/>
		<path class="st18" d="M202.5,115.3c0-39.7-32.1-71.8-71.8-71.8c-39.7,0-71.8,32.2-71.8,71.8c0,39.7,32.1,71.8,71.8,71.8
			C170.3,187.1,202.5,155,202.5,115.3z"/>
		<path class="st19" d="M201.9,114.6c0-39.7-32.1-71.8-71.8-71.8c-39.7,0-71.8,32.2-71.8,71.8c0,39.7,32.1,71.8,71.8,71.8
			C169.7,186.4,201.9,154.3,201.9,114.6z"/>
		<path class="st20" d="M201.3,113.9c0-39.7-32.1-71.8-71.8-71.8c-39.7,0-71.8,32.2-71.8,71.8c0,39.7,32.1,71.8,71.8,71.8
			C169.2,185.7,201.3,153.6,201.3,113.9z"/>
		<path class="st21" d="M200.8,113.2c0-39.7-32.1-71.8-71.8-71.8c-39.7,0-71.8,32.2-71.8,71.8c0,39.7,32.1,71.8,71.8,71.8
			C168.6,185.1,200.8,152.9,200.8,113.2z"/>
		<path class="st22" d="M200.2,112.6c0-39.7-32.1-71.8-71.8-71.8c-39.7,0-71.8,32.2-71.8,71.8c0,39.7,32.1,71.8,71.8,71.8
			C168,184.4,200.2,152.2,200.2,112.6z"/>
		<path class="st23" d="M199.6,111.9c0-39.7-32.1-71.8-71.8-71.8C88.2,40,56,72.2,56,111.9c0,39.7,32.1,71.8,71.8,71.8
			C167.5,183.7,199.6,151.5,199.6,111.9z"/>
		<path class="st24" d="M199.1,111.2c0-39.7-32.1-71.8-71.8-71.8c-39.7,0-71.8,32.2-71.8,71.8c0,39.7,32.1,71.8,71.8,71.8
			C166.9,183,199.1,150.8,199.1,111.2z"/>
		<path class="st25" d="M198.5,110.5c0-39.7-32.1-71.8-71.8-71.8c-39.7,0-71.8,32.2-71.8,71.8c0,39.7,32.1,71.8,71.8,71.8
			C166.3,182.3,198.5,150.1,198.5,110.5z"/>
		<path class="st26" d="M197.9,109.8c0-39.7-32.1-71.8-71.8-71.8c-39.7,0-71.8,32.2-71.8,71.8c0,39.7,32.1,71.8,71.8,71.8
			C165.8,181.6,197.9,149.4,197.9,109.8z"/>
		<path class="st27" d="M197.4,109.1c0-39.7-32.1-71.8-71.8-71.8c-39.7,0-71.8,32.2-71.8,71.8c0,39.7,32.1,71.8,71.8,71.8
			C165.2,180.9,197.4,148.7,197.4,109.1z"/>
		<path class="st28" d="M196.8,108.4c0-39.7-32.1-71.8-71.8-71.8c-39.7,0-71.8,32.2-71.8,71.8c0,39.7,32.1,71.8,71.8,71.8
			C164.6,180.2,196.8,148,196.8,108.4z"/>
		<path class="st29" d="M196.2,107.7c0-39.7-32.1-71.8-71.8-71.8c-39.7,0-71.8,32.2-71.8,71.8c0,39.7,32.1,71.8,71.8,71.8
			C164.1,179.5,196.2,147.4,196.2,107.7z"/>
		<path class="st30" d="M195.7,107c0-39.7-32.1-71.8-71.8-71.8C84.2,35.2,52,67.4,52,107c0,39.7,32.1,71.8,71.8,71.8
			C163.5,178.8,195.7,146.7,195.7,107z"/>
		<path class="st31" d="M195.1,106.3c0-39.7-32.1-71.8-71.8-71.8c-39.7,0-71.8,32.2-71.8,71.8c0,39.7,32.1,71.8,71.8,71.8
			C163,178.1,195.1,146,195.1,106.3z"/>
		<path class="st32" d="M194.5,105.6c0-39.7-32.1-71.8-71.8-71.8c-39.7,0-71.8,32.2-71.8,71.8c0,39.7,32.1,71.8,71.8,71.8
			C162.4,177.4,194.5,145.3,194.5,105.6z"/>
		<path class="st33" d="M194,104.9c0-39.7-32.1-71.8-71.8-71.8c-39.7,0-71.8,32.2-71.8,71.8c0,39.7,32.1,71.8,71.8,71.8
			C161.8,176.7,194,144.6,194,104.9z"/>
		<path class="st34" d="M193.4,104.2c0-39.7-32.1-71.8-71.8-71.8c-39.7,0-71.8,32.2-71.8,71.8c0,39.7,32.1,71.8,71.8,71.8
			C161.3,176,193.4,143.9,193.4,104.2z"/>
		<path class="st35" d="M192.8,103.5c0-39.7-32.1-71.8-71.8-71.8c-39.7,0-71.8,32.2-71.8,71.8c0,39.7,32.1,71.8,71.8,71.8
			C160.7,175.4,192.8,143.2,192.8,103.5z"/>
		<path class="st36" d="M192.3,102.9c0-39.7-32.1-71.8-71.8-71.8c-39.7,0-71.8,32.2-71.8,71.8c0,39.7,32.1,71.8,71.8,71.8
			C160.1,174.7,192.3,142.5,192.3,102.9z"/>
		<path class="st37" d="M191.7,102.2c0-39.7-32.1-71.8-71.8-71.8c-39.7,0-71.8,32.2-71.8,71.8c0,39.7,32.1,71.8,71.8,71.8
			C159.6,174,191.7,141.8,191.7,102.2z"/>
		<path class="st38" d="M191.1,101.5c0-39.7-32.1-71.8-71.8-71.8c-39.7,0-71.8,32.2-71.8,71.8c0,39.7,32.1,71.8,71.8,71.8
			C159,173.3,191.1,141.1,191.1,101.5z"/>
		<path class="st39" d="M190.6,100.8c0-39.7-32.1-71.8-71.8-71.8C79.1,29,47,61.1,47,100.8c0,39.7,32.1,71.8,71.8,71.8
			C158.4,172.6,190.6,140.4,190.6,100.8z"/>
		<path class="st40" d="M190,100.1c0-39.7-32.1-71.8-71.8-71.8c-39.7,0-71.8,32.2-71.8,71.8c0,39.7,32.1,71.8,71.8,71.8
			C157.9,171.9,190,139.7,190,100.1z"/>
		<path id="XMLID_1_" class="st41" d="M189.4,99.4c0-39.7-32.1-71.8-71.8-71.8c-39.7,0-71.8,32.2-71.8,71.8
			c0,39.7,32.1,71.8,71.8,71.8C157.3,171.2,189.4,139,189.4,99.4z"/>
	</g>
	<g>
		<path id="XMLID_49_" class="st42" d="M189.4,99.4c0-39.7-32.1-71.8-71.8-71.8c-39.7,0-71.8,32.2-71.8,71.8
			c0,39.7,32.1,71.8,71.8,71.8C157.3,171.2,189.4,139,189.4,99.4z"/>
		<path id="XMLID_47_" class="st43" d="M159.3,77.8c-2.9,1.2-6,2-9.2,2.3c3.4-2,6.1-5.1,7.4-8.8c0.1-0.2-0.2-0.4-0.4-0.3
			c-3.2,1.8-6.7,3.1-10.5,3.8c-3.2-3.3-7.7-5.4-12.7-5.4c-9.6,0-17.4,7.7-17.4,17.2c0,1.3,0.2,2.7,0.5,3.9
			c-14.5-0.7-27.3-7.5-35.9-17.8c0-0.1-0.1,0-0.2,0c-1.4,2.5-2.3,5.4-2.3,8.5c0,5.8,3,11,7.5,14.1c0.1,0.1,0,0.2-0.1,0.2
			c-2.7-0.1-5.2-0.9-7.4-2.1c-0.1,0-0.1,0-0.1,0.1c0,0.8,0.3,4.1,1.2,6.3c2.2,5.4,6.9,9.5,12.8,10.6c-1.5,0.4-3,0.6-4.6,0.6
			c-1.1,0-2.1-0.1-3.1-0.3c-0.1,0-0.1,0.1-0.1,0.1c2.3,6.7,8.5,11.5,16,11.8c0.1,0,0.1,0.1,0.1,0.2c-5.9,4.5-13.4,7.2-21.4,7.2
			c-1.4,0-2.8-0.1-4.2-0.2c7.7,4.9,16.9,7.7,26.7,7.7c13.6,0,24.6-4.7,32.7-11.8c8.2-7.2,13.6-16.9,15.8-26.7
			c0.8-3.5,1.2-7,1.2-10.4c0-0.7,0-1.5-0.1-2.2c3.2-2.2,5.9-5,8.2-8.1C159.8,78,159.6,77.7,159.3,77.8z"/>
	</g>
</g>
</svg>
